<svg xmlns="http://www.w3.org/2000/svg" version="1.1" xmlns:xlink="http://www.w3.org/1999/xlink" xmlns:svgjs="http://svgjs.dev/svgjs" width="1000" height="1000" viewBox="0 0 1000 1000"><rect width="1000" height="1000" fill="#0718c4"></rect><g transform="matrix(0.7,0,0,0.7,149.57575757575756,410.8289247704297)"><svg viewBox="0 0 396 101" data-background-color="#0718c4" preserveAspectRatio="xMidYMid meet" height="255" width="1000" xmlns="http://www.w3.org/2000/svg" xmlns:xlink="http://www.w3.org/1999/xlink"><g id="tight-bounds" transform="matrix(1,0,0,1,0.2400000000000091,-0.0446577132403263)"><svg viewBox="0 0 395.52 101.08909014849878" height="101.08909014849878" width="395.52"><g><svg viewBox="0 0 569.2138275666554 145.48267579049775" height="101.08909014849878" width="395.52"><g transform="matrix(1,0,0,1,173.6938275666554,42.86626400362326)"><svg viewBox="0 0 395.52 59.75014778325123" height="59.75014778325123" width="395.52"><g><svg viewBox="0 0 395.52 59.75014778325123" height="59.75014778325123" width="395.52"><g><svg viewBox="0 0 395.52 59.75014778325123" height="59.75014778325123" width="395.52"><g transform="matrix(1,0,0,1,0,0)"><svg width="395.52" viewBox="-0.27000001072883606 -33.08000183105469 223.010009765625 33.69000244140625" height="59.75014778325123" data-palette-color="#ffffff"><path d="M8.86-7.03L6.57 0.2Q4.47 0 1.66 0L1.66 0-0.27 0 10.35-29.76Q11.06-31.76 11.06-32.09 11.06-32.42 11.04-32.5L11.04-32.5 11.06-32.54Q12.65-32.47 14.43-32.47L14.43-32.47Q15.89-32.47 17.94-32.52L17.94-32.52 17.97-32.47Q17.92-32.37 17.92-32.2L17.92-32.2Q17.92-31.74 18.65-29.74L18.65-29.74 29.49 0.07Q29 0.05 28.34 0.05L28.34 0.05Q28.34 0.05 27.08 0L27.08 0Q26.46 0 25.98 0L25.98 0 22.19 0 19.9-7.03 8.86-7.03ZM10.72-12.89L17.99-12.89 14.31-24.24 10.72-12.89ZM34.18 0L34.18-32.57Q36.62-32.47 37.13-32.47L37.13-32.47 38.89-32.47Q40.18-32.47 40.96-32.67L40.96-32.67 40.94 0 34.18 0ZM66.28 0.2L60.62-12.62Q59.88-12.57 59.05-12.57 58.22-12.57 56.59-12.7L56.59-12.7 56.59 0 50.12 0 50.12-32.64Q53.54-33.08 58.52-33.08L58.52-33.08Q65.3-33.08 68.64-30.58 71.97-28.08 71.97-22.85L71.97-22.85Q71.97-18.8 68.92-15.92L68.92-15.92Q67.91-14.99 66.62-14.31L66.62-14.31 71.6-3.81Q73.07-0.56 73.85 0.05L73.85 0.05 73.73 0.17Q71.36-0.22 66.28 0.2L66.28 0.2ZM58.98-27.32L58.98-27.32Q57.73-27.32 56.59-27.2L56.59-27.2 56.59-17.87Q57.78-17.7 59.39-17.7 61.01-17.7 62.1-17.98 63.2-18.26 64.01-18.85L64.01-18.85Q65.74-20.14 65.74-22.73 65.74-25.32 63.94-26.37L63.94-26.37Q62.25-27.32 58.98-27.32ZM115.42-30.66L115.42-30.66 114.96-23.49 114.78-23.44Q112.98-26.15 108.63-26.95L108.63-26.95Q107.27-27.22 106.01-27.22 104.75-27.22 103.86-27 102.97-26.78 102.33-26.37L102.33-26.37Q100.99-25.49 100.99-24.07L100.99-24.07Q100.99-22.22 102.16-21.29L102.16-21.29Q103.63-20.17 107.02-19.71 110.41-19.26 112.47-18.48 114.52-17.7 115.83-16.5L115.83-16.5Q118.32-14.26 118.32-10.16L118.32-10.16Q118.32-4.79 114.27-1.88L114.27-1.88Q110.81 0.61 105.53 0.61L105.53 0.61Q101.28 0.61 97.13-1L97.13-1Q95.77-1.54 94.74-2.25L94.74-2.25 95.01-10.4 95.11-10.47Q98.13-5.25 105.04-5.25L105.04-5.25Q109.95-5.25 111.54-7.62L111.54-7.62Q112.07-8.42 112.07-9.41 112.07-10.4 111.76-11.05 111.44-11.69 110.71-12.16L110.71-12.16Q109.29-13.09 105.95-13.4 102.6-13.72 100.48-14.6 98.35-15.48 97.08-16.77L97.08-16.77Q94.79-19.12 94.79-23.32L94.79-23.32Q94.79-27.66 97.84-30.35L97.84-30.35Q100.94-33.08 106.2-33.08 111.46-33.08 115.42-30.66ZM127.6-3.86Q125.38-5.98 124.1-8.96 122.81-11.94 122.81-15.49 122.81-19.04 124.01-22.22 125.21-25.39 127.43-27.81 129.65-30.22 132.8-31.65 135.95-33.08 139.86-33.08L139.86-33.08Q146.59-33.08 151.21-28.83L151.21-28.83Q156.14-24.29 156.14-16.58L156.14-16.58Q156.14-9.11 151.06-4.15L151.06-4.15Q147.94-1.1 143.62 0.05L143.62 0.05Q141.49 0.61 138.65 0.61 135.8 0.61 132.81-0.56 129.82-1.73 127.6-3.86ZM129.6-15.82L129.6-15.82Q129.6-13.55 130.36-11.65 131.12-9.74 132.46-8.37L132.46-8.37Q135.31-5.49 139.81-5.49L139.81-5.49Q144.08-5.49 146.67-8.25L146.67-8.25Q149.3-11.11 149.3-16.04L149.3-16.04Q149.3-20.68 146.79-23.78L146.79-23.78Q144.08-27.1 139.37-27.1L139.37-27.1Q134.8-27.1 132.12-23.73L132.12-23.73Q129.6-20.58 129.6-15.82ZM168.64-9.89L168.64 0.15Q166.95 0 164.34 0L164.34 0 162.41 0 162.41-32.57 163.39-32.52Q164.41-32.47 164.93-32.47L164.93-32.47 165.63-32.47Q167.78-32.47 168.64-32.67L168.64-32.67 168.64-18.87 178.53-32.57Q180.09-32.47 181.16-32.47L181.16-32.47 182.5-32.47Q185.02-32.47 186.09-32.67L186.09-32.67 176.67-20.36 185.95-1.95Q186.53-0.61 187.05 0L187.05 0 185.56 0Q180.4 0 179.14 0.2L179.14 0.2Q178.87-1.44 178.4-2.66L178.4-2.66 172.18-14.53 168.64-9.89ZM194.2-3.86Q191.97-5.98 190.69-8.96 189.41-11.94 189.41-15.49 189.41-19.04 190.61-22.22 191.8-25.39 194.03-27.81 196.25-30.22 199.4-31.65 202.55-33.08 206.45-33.08L206.45-33.08Q213.19-33.08 217.8-28.83L217.8-28.83Q222.74-24.29 222.74-16.58L222.74-16.58Q222.74-9.11 217.66-4.15L217.66-4.15Q214.53-1.1 210.21 0.05L210.21 0.05Q208.09 0.61 205.24 0.61 202.4 0.61 199.41-0.56 196.42-1.73 194.2-3.86ZM196.2-15.82L196.2-15.82Q196.2-13.55 196.96-11.65 197.71-9.74 199.05-8.37L199.05-8.37Q201.91-5.49 206.4-5.49L206.4-5.49Q210.68-5.49 213.26-8.25L213.26-8.25Q215.9-11.11 215.9-16.04L215.9-16.04Q215.9-20.68 213.39-23.78L213.39-23.78Q210.68-27.1 205.96-27.1L205.96-27.1Q201.4-27.1 198.71-23.73L198.71-23.73Q196.2-20.58 196.2-15.82Z" opacity="1" transform="matrix(1,0,0,1,0,0)" fill="#ffffff" class="undefined-text-0" data-fill-palette-color="primary" id="text-0"></path></svg></g></svg></g></svg></g></svg></g><g><svg viewBox="0 0 145.48267579049775 145.48267579049775" height="145.48267579049775" width="145.48267579049775"><g><svg></svg></g><g id="icon-0"><svg viewBox="0 0 145.48267579049775 145.48267579049775" height="145.48267579049775" width="145.48267579049775"><g><path d="M0 72.741c0-40.174 32.567-72.741 72.741-72.741 40.174 0 72.741 32.567 72.742 72.741 0 40.174-32.567 72.741-72.742 72.742-40.174 0-72.741-32.567-72.741-72.742zM72.741 140.094c37.198 0 67.353-30.155 67.353-67.353 0-37.198-30.155-67.353-67.353-67.353-37.198 0-67.353 30.155-67.353 67.353 0 37.198 30.155 67.353 67.353 67.353z" data-fill-palette-color="accent" fill="#ffffff" stroke="transparent"></path></g><g transform="matrix(1,0,0,1,30.64605954048676,38.88548699714547)"><svg viewBox="0 0 84.19055670952423 67.71170179620681" height="67.71170179620681" width="84.19055670952423"><g><svg xmlns="http://www.w3.org/2000/svg" xmlns:xlink="http://www.w3.org/1999/xlink" version="1.1" x="0" y="0" viewBox="0 9.78600025177002 100.0003433227539 80.42699432373047" enable-background="new 0 0 100 100" xml:space="preserve" width="84.19055670952423" height="67.71170179620681" class="icon-s-0" data-fill-palette-color="accent" id="s-0"><path d="M49.942 52.994c13.552-0.488 27.103-0.977 40.653-1.465-2.527-4.177-3.159-7.831-7.989-8.461-7.229-0.94-14.458-1.883-21.688-2.826-14.023-1.827-28.05-3.654-42.075-5.48C20.101 36.792 39.724 53.361 49.942 52.994z" fill="#ffffff" data-fill-palette-color="accent"></path><path d="M0 9.786c4.391 7.257 26.615 23.072 32.953 23.886 17.33 2.231 34.657 4.46 51.986 6.688-3.393-5.607-4.18-9.35-10.312-10.959-8.904-2.341-17.812-4.683-26.717-7.023C31.94 18.182 15.97 13.984 0 9.786z" fill="#ffffff" data-fill-palette-color="accent"></path><path d="M63.108 66.207c10.413-2.219 20.826-4.439 31.241-6.66-2.028-3.346-2.034-5.359-5.827-5.189-6.158 0.273-12.314 0.549-18.471 0.822-11.343 0.506-22.686 1.014-34.028 1.518C37.298 58.064 54.94 67.947 63.108 66.207z" fill="#ffffff" data-fill-palette-color="accent"></path><path d="M87.682 90.213c5.725-3.719 7.262-7.721 10.519-13.807 3.651-6.824 1.257-7.844-2.821-14.596-0.417-0.688-5.842 0.232-6.453 0.904-0.745 0.818-0.248 5.455-0.294 6.496C88.315 76.211 87.998 83.213 87.682 90.213z" fill="#ffffff" data-fill-palette-color="accent"></path><path d="M86.35 63.447c-3.795 0.809-8.604 0.191-9.572 4.229-1.373 5.736-2.746 11.475-4.12 17.211C81.904 82.678 86.028 71.582 86.35 63.447z" fill="#ffffff" data-fill-palette-color="accent"></path><path d="M74.666 66.121c-9.148 1.953-8.956 4.611-12.879 13.18C68.007 78.711 73.811 71.941 74.666 66.121z" fill="#ffffff" data-fill-palette-color="accent"></path></svg></g></svg></g></svg></g></svg></g></svg></g><defs></defs></svg><rect width="395.52" height="101.08909014849878" fill="none" stroke="none" visibility="hidden"></rect></g></svg></g></svg>